<svg aria-hidden="true" style="position:absolute;width:0;height:0;overflow:hidden" xmlns="http://www.w3.org/2000/svg">
  <defs>
    <symbol id="icon-antenna" viewBox="0 0 32 32">
      <path fill="none" stroke="#000" style="stroke:var(--color1, #000)" stroke-width=".444" d="M2 .222h28v28H2v-28z"/>
      <path fill="#2e2f42" style="fill:var(--color2, #2e2f42)" d="m29.132 19.642-7.505-7.56.833-4.103c.215.084.443.128.674.129h.006a1.919 1.919 0 1 0-1.785-1.276l-4.409.538L9.754.141a.474.474 0 0 0-.335-.142.475.475 0 0 0-.332.138L7.742 1.474a.474.474 0 0 0 0 .67l.723.734a13.281 13.281 0 0 0 2.24 15.7.456.456 0 0 0 .13.087 2.73 2.73 0 0 0-.046.486v5.499H5.1a2.373 2.373 0 0 0-2.37 2.37v.948c0 .262.212.474.474.474h21.807a.474.474 0 0 0 .474-.474v-.948a2.373 2.373 0 0 0-2.37-2.37h-5.689v-2.437c.891.187 1.799.282 2.71.284a13.2 13.2 0 0 0 6.258-1.585l.727.732c.088.09.209.141.335.142a.475.475 0 0 0 .332-.138l1.345-1.337a.474.474 0 0 0 0-.67zM22.471 5.54a.948.948 0 1 1 .668 1.621h-.003a.947.947 0 0 1-.663-1.62h-.002zm-1.116 3.116-.532 2.618-1.045-1.051 1.577-1.567zm-.539-.802-1.707 1.697-1.32-1.327 3.027-.369zM23.115 25.6c.785 0 1.422.637 1.422 1.422v.474H3.678v-.474c0-.785.637-1.422 1.422-1.422h18.015zm-6.637-1.896v.948h-4.741v-.948h4.741zm-4.741-.948v-3.603c0-1.15 1.063-2.086 2.37-2.086s2.37.936 2.37 2.086v3.603h-4.741zm5.689-1.508v-2.095c0-1.673-1.489-3.034-3.319-3.034a3.378 3.378 0 0 0-2.917 1.588A12.328 12.328 0 0 1 9.165 3.585L25.7 20.215a12.28 12.28 0 0 1-8.274 1.034zm10.035-.608L8.744 1.813l.671-.668 7.053 7.093c.003 0 .005.006.009.009l11.657 11.726-.673.668z"/>
      <path fill="#4d5ae5" style="fill:var(--color3, #4d5ae5)" d="M14.112 18.015h-.004a1.422 1.422 0 0 0-.004 2.844h.004a1.422 1.422 0 0 0 .004-2.844zm.331 1.758a.474.474 0 1 1-.336-.811.475.475 0 0 1 .332.811h.004z"/>
    </symbol>
    <symbol id="icon-astronaut" viewBox="0 0 32 32">
      <path fill="none" stroke="#000" style="stroke:var(--color1, #000)" stroke-width=".444" d="M2 .222h28v28H2v-28z"/>
      <path fill="#4d5ae5" style="fill:var(--color3, #4d5ae5)" d="M30.199 4.021a.475.475 0 0 0-.383-.322l-1.698-.247-.76-1.539c-.159-.324-.691-.324-.85 0l-.76 1.539-1.698.247a.475.475 0 0 0-.263.808l1.229 1.198-.29 1.691a.473.473 0 0 0 .688.5l1.519-.799 1.519.799a.47.47 0 0 0 .5-.037.473.473 0 0 0 .188-.464l-.29-1.692 1.229-1.198a.476.476 0 0 0 .12-.486zm-2.189 1.18a.475.475 0 0 0-.136.42l.17.99-.889-.467a.467.467 0 0 0-.442 0l-.889.467.17-.99a.475.475 0 0 0-.136-.42l-.72-.702.995-.145a.471.471 0 0 0 .357-.259l.445-.901.445.901c.069.14.202.237.357.259l.995.145-.719.702zM25.008 18.242h-.948v.948h.948v-.948zM25.008 20.138h-.948v.948h.948v-.948zM25.956 19.19h-.948v.948h.948v-.948zM24.059 19.19h-.948v.948h.948v-.948zM21.689 23.457h-.948v.948h.948v-.948zM21.689 25.353h-.948v.948h.948v-.948zM22.637 24.405h-.948v.948h.948v-.948zM20.741 24.405h-.948v.948h.948v-.948zM16 21.561h-.948v.948H16v-.948zM16 23.457h-.948v.948H16v-.948zM16.948 22.509H16v.948h.948v-.948zM15.052 22.509h-.948v.948h.948v-.948zM6.992 5.442h-.948v.948h.948v-.948zM6.992 7.338h-.948v.948h.948v-.948zM7.941 6.39h-.948v.948h.948V6.39zM6.044 6.39h-.948v.948h.948V6.39z"/>
      <path fill="#2e2f42" style="fill:var(--color2, #2e2f42)" d="M23.746 12.586a1.578 1.578 0 0 0-1.056-.626 1.578 1.578 0 0 0-1.191.313l-1.113.853-1.687 1.26-1.207-.481c2.152-.966 3.657-3.118 3.657-5.618 0-3.398-2.776-6.163-6.188-6.163S8.773 4.889 8.773 8.287c0 1.232.368 2.377.996 3.341l-2.457-.021h-.004c-.008 0-.014.004-.021.004a.47.47 0 0 0-.138.027c-.011.004-.023.007-.034.012l-.017.006-2.874 1.419h-.001l-1.683.809a.453.453 0 0 0-.056.031 1.583 1.583 0 0 0 .886 2.903c.257 0 .513-.063.746-.188l1.234-.656 2.013-1.039 1.206-.007-4.837 4.814-.001.001-1.19 1.185c-.281.28-.436.651-.436 1.047s.155.767.436 1.048c.289.287.668.431 1.048.431s.759-.144 1.049-.431l1.168-1.163 1.547-1.155.801.797-1.566 1.559-.001.001-1.19 1.185c-.281.28-.436.651-.436 1.047s.155.767.436 1.048c.289.287.669.431 1.049.431s.76-.144 1.049-.431l3.095-3.081.001-.001.897-.889-.003-.003c.006-.006.014-.008.019-.014l4.592-5.029 3.085.439a.473.473 0 0 0 .233-.029c.016-.006.029-.013.044-.021.017-.009.035-.013.051-.024l2.856-1.896c.01-.007.016-.019.026-.026.011-.009.026-.013.036-.023l1.13-1.059a1.58 1.58 0 0 0 .188-2.099zm-20.075 3.21a.635.635 0 0 1-.496.046.634.634 0 0 1-.188-1.12l1.168-.562.399 1.167-.882.469zm3.109-1.625-1.376.711-.39-1.141 1.802-.889-.035 1.319zm13.422-5.885c0 .816-.195 1.586-.532 2.275l-3.717-1.688a1.653 1.653 0 0 0-.701-1.234l1.301-4.32c2.113.672 3.648 2.644 3.648 4.967zm-10.479 0c0-2.875 2.351-5.215 5.24-5.215.225 0 .445.019.662.046l-1.273 4.226c-.017 0-.033-.005-.051-.005-.918 0-1.665.744-1.665 1.659s.747 1.659 1.665 1.659a1.66 1.66 0 0 0 1.438-.84l3.433 1.56a5.235 5.235 0 0 1-4.21 2.124c-2.889 0-5.239-2.34-5.239-5.215zm5.294.711c0 .392-.321.711-.716.711s-.716-.319-.716-.711c0-.392.321-.711.716-.711s.716.319.716.711zM3.969 22.352a.54.54 0 0 1-.759 0 .527.527 0 0 1 0-.751l.855-.852.757.753-.852.849zm2.856 3.319a.54.54 0 0 1-.76 0 .527.527 0 0 1 0-.751l.856-.852.757.753-.853.849zm3.095-3.084-.001.001-1.569 1.564-.757-.753 1.567-1.56.001-.001c.036-.036.058-.078.08-.12.006-.012.018-.023.023-.036.015-.037.017-.076.023-.114.003-.022.012-.042.012-.064 0-.032-.011-.063-.018-.094-.006-.028-.006-.057-.017-.085a.463.463 0 0 0-.081-.122c-.009-.01-.012-.024-.022-.034H9.16l-.001-.002-1.428-1.422c-.015-.015-.035-.021-.052-.034a.49.49 0 0 0-.077-.051.48.48 0 0 0-.083-.029.473.473 0 0 0-.091-.018c-.029-.002-.056.001-.085.004-.032.004-.062.008-.092.018s-.056.024-.084.04c-.018.01-.037.013-.054.026l-1.576 1.177-.801-.797 2.132-2.121 3.876 3.812-.825.817zm6.062-6.237c-.014-.002-.027.003-.04.002a.494.494 0 0 0-.18.025.427.427 0 0 0-.086.042.395.395 0 0 0-.074.055c-.011.01-.025.015-.036.026l-4.176 4.574-3.847-3.784 2.518-2.505a.475.475 0 0 0-.338-.81l-1.972.012.025-1.429 2.759.024a6.178 6.178 0 0 0 4.428 1.867c.389 0 .768-.04 1.137-.109.036.028.071.057.115.075l2.142.853.136.674.158.787-2.669-.38zm3.592.159-.278-1.385 1.286-.96.841 1.117-1.849 1.228zm3.336-2.517-.745.698-.828-1.099.739-.566a.654.654 0 0 1 .483-.127.635.635 0 0 1 .351 1.095z"/>
      <path fill="#2e2f42" style="fill:var(--color2, #2e2f42)" d="m13.869 16.484-1.905-1.896a.474.474 0 0 0-.669 0l-1.904 1.896a.477.477 0 0 0 0 .672l1.904 1.896a.473.473 0 0 0 .669 0l1.905-1.896a.476.476 0 0 0 0-.672zm-2.24 1.563-1.233-1.227 1.233-1.227 1.233 1.227-1.233 1.227zM17.035 4.507l-.229.921c.063.016 1.545.402 1.545 1.91h.948c0-1.793-1.481-2.636-2.264-2.831zM19.299 8.286h-.948v.948h.948v-.948z"/>
    </symbol>
    <symbol id="icon-clock" viewBox="0 0 32 32">
      <path fill="#2e2f42" style="fill:var(--color2, #2e2f42)" d="M29.597 13.601C29.595 6.088 23.503-.002 15.99 0S2.387 6.094 2.389 13.607a13.604 13.604 0 0 0 9.466 12.957.601.601 0 0 0 .47-.058.567.567 0 0 0 .252-.317L16.013 15.3a1.7 1.7 0 1 0-.746-3.231L10.728 7.53a.567.567 0 0 0-.801.802l4.536 4.541a1.669 1.669 0 0 0 .477 2.053l-3.273 10.376c-6.469-2.383-9.782-9.559-7.399-16.028s9.559-9.782 16.028-7.399c6.469 2.383 9.782 9.559 7.399 16.028a12.476 12.476 0 0 1-6.633 7.087l-.354-1.666a.567.567 0 0 0-.932-.305l-3.411 3.045a.566.566 0 0 0 .206.963l4.354 1.39a.567.567 0 0 0 .728-.657l-.348-1.635a13.56 13.56 0 0 0 8.292-12.524zm-13.604-.567a.567.567 0 1 1 0 1.134.567.567 0 0 1 0-1.134zm1.867 13.213 1.941-1.732.536 2.525-2.477-.793z"/>
      <path fill="#4d5ae5" style="fill:var(--color3, #4d5ae5)" d="M15.426 2.831v1.134a.567.567 0 0 0 1.134 0V2.831a.567.567 0 0 0-1.134 0zM5.223 13.034a.567.567 0 0 0 0 1.134h1.134a.567.567 0 0 0 0-1.134H5.223zM26.763 14.168a.567.567 0 0 0 0-1.134h-1.134a.567.567 0 0 0 0 1.134h1.134z"/>
      <path fill="none" stroke="#000" style="stroke:var(--color1, #000)" stroke-width=".444" d="M2 .222h28v28H2v-28z"/>
    </symbol>
    <symbol id="icon-diagram" viewBox="0 0 32 32">
      <path fill="#4d5ae5" style="fill:var(--color3, #4d5ae5)" d="M15.045 13.302h.948v4.264h-.948v-4.264zM18.835 15.197h.948v2.369h-.948v-2.369zM11.254 16.619h.948v.948h-.948v-.948zM8.411 16.145h.948v1.421h-.948v-1.421z"/>
      <path fill="#2e2f42" style="fill:var(--color2, #2e2f42)" d="M3.199 25.148h22.744c.785 0 1.422-.636 1.422-1.421v-1.895c0-.785-.637-1.421-1.422-1.421h-.474V8.595l2.691-2.55a1.43 1.43 0 1 0-.663-.678l-2.028 1.922V6.196a1.42 1.42 0 0 0-1.421-1.421H5.095a1.42 1.42 0 0 0-1.421 1.421v14.215H3.2a1.42 1.42 0 0 0-1.421 1.421v1.895A1.42 1.42 0 0 0 3.2 25.148zM28.786 4.299a.474.474 0 1 1 0 .947.474.474 0 0 1 0-.947zM4.621 6.194c0-.262.212-.474.474-.474h18.953c.262 0 .474.212.474.474v1.99l-.948.9V7.141a.474.474 0 0 0-.474-.474H6.042a.474.474 0 0 0-.474.474v11.846c0 .262.212.474.474.474H23.1a.474.474 0 0 0 .474-.474v-8.599l.948-.898v10.919H4.621V6.194zm4.264 6.16a1.422 1.422 0 1 0 .984 2.443l1.647.826a.474.474 0 0 0 .566-.109l3.501-3.939 3.442 2.579a.474.474 0 0 0 .61-.035l2.991-2.833v7.228H6.516V7.616h16.11v2.365l-3.352 3.175-3.471-2.602a.473.473 0 0 0-.638.064l-3.549 3.993-1.327-.664c.01-.057.016-.114.018-.172a1.42 1.42 0 0 0-1.421-1.421zm.474 1.422a.474.474 0 1 1-.947 0 .474.474 0 0 1 .947 0zm2.843 7.581h4.738v.474a.474.474 0 0 1-.474.474h-3.791a.474.474 0 0 1-.474-.474v-.474zm-9.477.474c0-.262.212-.474.474-.474h8.055v.474a1.42 1.42 0 0 0 1.421 1.421h3.791a1.42 1.42 0 0 0 1.421-1.421v-.474h8.055c.262 0 .474.212.474.474v1.895a.474.474 0 0 1-.474.474H3.198a.474.474 0 0 1-.474-.474v-1.895z"/>
      <path fill="none" stroke="#000" style="stroke:var(--color1, #000)" stroke-width=".444" d="M2 .222h28v28H2v-28z"/>
    </symbol>
  </defs>
</svg>
